# Blender v3.0.0 OBJ File: 'basesv2.blend'
# www.blender.org
mtllib 3 Side.mtl
o 3_Side_Cylinder.001
v 0.000000 -0.002000 -0.040000
v 0.000000 0.002000 -0.040000
v 0.034641 -0.002000 -0.020000
v 0.034641 0.002000 -0.020000
v 0.034641 -0.002000 0.020000
v 0.034641 0.002000 0.020000
v -0.000000 -0.002000 0.040000
v -0.000000 0.002000 0.040000
v 0.000000 0.002000 0.000000
v -0.000000 -0.002000 0.000000
vt 1.000000 0.500000
vt 1.000000 1.000000
vt 0.833333 1.000000
vt 0.833333 0.500000
vt 0.666667 1.000000
vt 0.666667 0.500000
vt 0.500000 1.000000
vt 0.500000 0.500000
vt 0.750000 0.010000
vt 0.250000 0.010000
vt 0.250000 0.250000
vt 0.750000 0.250000
vt 0.457846 0.370000
vt 0.457846 0.130000
vt 0.957846 0.370000
vt 0.957846 0.130000
vt 0.750000 0.490000
vt 0.250000 0.490000
vn 0.5000 0.0000 -0.8660
vn 1.0000 0.0000 0.0000
vn 0.5000 0.0000 0.8660
vn -1.0000 0.0000 -0.0000
vn 0.0000 1.0000 0.0000
vn 0.0000 -1.0000 -0.0000
usemtl None
s off
f 1/1/1 2/2/1 4/3/1 3/4/1
f 3/4/2 4/3/2 6/5/2 5/6/2
f 5/6/3 6/5/3 8/7/3 7/8/3
f 7/9/4 8/10/4 9/11/4 10/12/4
f 4/13/5 9/11/5 6/14/5
f 6/14/5 9/11/5 8/10/5
f 10/12/6 3/15/6 5/16/6
f 1/17/4 10/12/4 9/11/4 2/18/4
f 10/12/6 1/17/6 3/15/6
f 7/9/6 10/12/6 5/16/6
f 2/18/5 9/11/5 4/13/5
