# Blender v3.0.0 OBJ File: 'basesv2.blend'
# www.blender.org
mtllib 2 Side.mtl
o 2_Side_Cylinder.002
v 0.160000 -0.016000 -0.277128
v 0.160000 0.016000 -0.277128
v 0.320000 -0.016000 0.000000
v 0.320000 0.016000 0.000000
v 0.160000 -0.016000 0.277128
v 0.160000 0.016000 0.277128
v 0.000000 0.016000 0.000000
v -0.000000 -0.016000 0.000000
vt 0.833333 0.500000
vt 0.833333 1.000000
vt 0.666667 1.000000
vt 0.666667 0.500000
vt 0.500000 1.000000
vt 0.500000 0.500000
vt 0.750000 0.010000
vt 0.250000 0.010000
vt 0.250000 0.250000
vt 0.750000 0.250000
vt 0.457846 0.370000
vt 0.457846 0.130000
vt 0.957846 0.370000
vt 0.957846 0.130000
vn 0.8660 0.0000 -0.5000
vn 0.8660 0.0000 0.5000
vn -0.8660 0.0000 0.5000
vn 0.0000 1.0000 0.0000
vn 0.0000 -1.0000 0.0000
vn -0.8660 0.0000 -0.5000
usemtl None
s off
f 1/1/1 2/2/1 4/3/1 3/4/1
f 3/4/2 4/3/2 6/5/2 5/6/2
f 5/7/3 6/8/3 7/9/3 8/10/3
f 2/11/4 7/9/4 4/12/4
f 4/12/4 7/9/4 6/8/4
f 8/10/5 1/13/5 3/14/5
f 5/7/5 8/10/5 3/14/5
f 1/13/6 8/10/6 7/9/6 2/11/6
